<svg width="489" height="106" viewBox="0 0 489 106" fill="none" xmlns="http://www.w3.org/2000/svg">
<path d="M47.328 105.864L47.2 87.688C45.152 92.1253 42.08 95.7947 37.984 98.696C33.888 101.512 29.4933 102.92 24.8 102.92C20.192 102.92 16.0533 101.469 12.384 98.568C8.71467 95.6667 5.81333 91.6987 3.68 86.664C1.54667 81.544 0.48 75.784 0.48 69.384C0.48 62.216 1.80267 55.9867 4.448 50.696C7.17867 45.4053 10.9333 41.352 15.712 38.536C20.4907 35.6347 25.9947 34.184 32.224 34.184C35.7227 34.184 38.5813 34.7387 40.8 35.848C43.0187 36.872 45.024 38.664 46.816 41.224V16.52C46.816 13.448 45.8347 10.9733 43.872 9.09599C41.9947 7.21866 39.52 6.28 36.448 6.28V4.99999H49.504C53.7707 4.99999 57.0133 4.57333 59.232 3.71999C61.4507 2.86666 63.0293 1.67199 63.968 0.135994H65.248V89.48C65.248 92.552 66.1867 95.0267 68.064 96.904C69.9413 98.7813 72.4587 99.72 75.616 99.72V101H62.56C58.8053 101 55.8187 101.384 53.6 102.152C51.4667 102.92 49.8027 104.157 48.608 105.864H47.328ZM31.84 97.8C33.8027 97.8 35.7653 97.2027 37.728 96.008C39.776 94.728 41.6107 93.064 43.232 91.016C44.8533 88.968 46.048 86.792 46.816 84.488V53.256C46.3893 48.136 45.1093 44.04 42.976 40.968C40.928 37.896 38.24 36.36 34.912 36.36C30.4747 36.36 27.0187 39.176 24.544 44.808C22.1547 50.44 20.96 58.76 20.96 69.768C20.96 88.456 24.5867 97.8 31.84 97.8ZM110.921 102.792C103.924 102.792 97.7797 101.384 92.489 98.568C87.2837 95.752 83.2303 91.784 80.329 86.664C77.4277 81.544 75.977 75.4853 75.977 68.488C75.977 61.4907 77.4277 55.432 80.329 50.312C83.2303 45.192 87.2837 41.224 92.489 38.408C97.7797 35.592 103.924 34.184 110.921 34.184C117.918 34.184 124.02 35.592 129.225 38.408C134.43 41.224 138.484 45.192 141.385 50.312C144.286 55.432 145.737 61.4907 145.737 68.488C145.737 75.4853 144.286 81.544 141.385 86.664C138.484 91.784 134.43 95.752 129.225 98.568C124.02 101.384 117.918 102.792 110.921 102.792ZM110.793 101.128C113.78 101.128 116.34 99.6347 118.473 96.648C120.606 93.6613 122.27 89.6933 123.465 84.744C124.66 79.7093 125.257 74.248 125.257 68.36C125.257 61.96 124.617 56.328 123.337 51.464C122.142 46.5147 120.436 42.6747 118.217 39.944C116.084 37.128 113.652 35.72 110.921 35.72C108.02 35.72 105.46 37.2133 103.241 40.2C101.108 43.1867 99.4437 47.1547 98.249 52.104C97.0543 57.0533 96.457 62.472 96.457 68.36C96.457 74.8453 97.097 80.5627 98.377 85.512C99.657 90.4613 101.364 94.3013 103.497 97.032C105.716 99.7627 108.148 101.128 110.793 101.128ZM147.518 101V99.72H147.646C150.718 99.72 153.193 98.7813 155.07 96.904C156.947 95.0267 157.886 92.552 157.886 89.48V47.496C157.886 44.2533 157.203 41.736 155.838 39.944C154.558 38.152 151.785 37.256 147.518 37.256V35.976H160.19C164.542 35.976 167.87 35.5067 170.174 34.568C172.307 33.6293 173.801 32.4773 174.654 31.112H175.934L176.062 49.032C178.281 44.5947 181.651 41.0107 186.174 38.28C190.697 35.5493 195.475 34.184 200.51 34.184C206.227 34.184 210.793 36.0613 214.206 39.816C217.705 43.5707 219.454 48.52 219.454 54.664V89.48C219.454 92.552 220.393 95.0267 222.27 96.904C224.147 98.7813 226.622 99.72 229.694 99.72H229.822V101H190.782V99.72H190.91C193.982 99.72 196.457 98.7813 198.334 96.904C200.211 95.0267 201.15 92.552 201.15 89.48V53.384C201.15 49.1173 200.297 45.704 198.59 43.144C196.969 40.584 194.793 39.304 192.062 39.304C189.417 39.304 186.643 40.456 183.742 42.76C180.926 44.9787 178.451 48.008 176.318 51.848V89.48C176.318 92.552 177.257 95.0267 179.134 96.904C181.011 98.7813 183.486 99.72 186.558 99.72H186.686V101H147.518ZM228.268 101V99.72H228.396C231.468 99.72 233.943 98.7813 235.82 96.904C237.697 95.0267 238.636 92.552 238.636 89.48V47.496C238.636 44.2533 237.953 41.736 236.588 39.944C235.308 38.152 232.535 37.256 228.268 37.256V35.976H240.94C245.292 35.976 248.62 35.5067 250.924 34.568C253.057 33.6293 254.551 32.4773 255.404 31.112H256.684L256.812 49.032C259.031 44.5947 262.401 41.0107 266.924 38.28C271.447 35.5493 276.225 34.184 281.26 34.184C286.977 34.184 291.543 36.0613 294.956 39.816C298.455 43.5707 300.204 48.52 300.204 54.664V89.48C300.204 92.552 301.143 95.0267 303.02 96.904C304.897 98.7813 307.372 99.72 310.444 99.72H310.572V101H271.532V99.72H271.66C274.732 99.72 277.207 98.7813 279.084 96.904C280.961 95.0267 281.9 92.552 281.9 89.48V53.384C281.9 49.1173 281.047 45.704 279.34 43.144C277.719 40.584 275.543 39.304 272.812 39.304C270.167 39.304 267.393 40.456 264.492 42.76C261.676 44.9787 259.201 48.008 257.068 51.848V89.48C257.068 92.552 258.007 95.0267 259.884 96.904C261.761 98.7813 264.236 99.72 267.308 99.72H267.436V101H228.268ZM340.057 102.536C334.169 102.536 328.921 101.085 324.313 98.184C319.79 95.2827 316.249 91.272 313.689 86.152C311.129 80.9467 309.849 75.016 309.849 68.36C309.849 61.5333 311.257 55.56 314.073 50.44C316.889 45.32 320.729 41.352 325.593 38.536C330.542 35.6347 336.132 34.184 342.361 34.184C347.566 34.184 352.174 35.208 356.185 37.256C360.281 39.304 363.524 42.2053 365.913 45.96C368.388 49.6293 369.796 53.896 370.137 58.76L370.265 60.68H327.257V61.32C327.257 70.3653 329.262 77.6187 333.273 83.08C337.284 88.456 342.66 91.144 349.401 91.144C353.497 91.144 357.38 90.1627 361.049 88.2C364.804 86.152 367.833 83.4213 370.137 80.008L371.289 80.392C369.838 84.744 367.577 88.584 364.505 91.912C361.433 95.24 357.806 97.8427 353.625 99.72C349.444 101.597 344.921 102.536 340.057 102.536ZM327.385 58.76H353.369C353.369 52.0187 352.26 46.5573 350.041 42.376C347.908 38.1947 344.878 36.104 340.953 36.104C337.198 36.104 334.084 38.152 331.609 42.248C329.134 46.344 327.726 51.848 327.385 58.76ZM405.557 102.536C399.669 102.536 394.421 101.085 389.813 98.184C385.29 95.2827 381.749 91.272 379.189 86.152C376.629 80.9467 375.349 75.016 375.349 68.36C375.349 61.5333 376.757 55.56 379.573 50.44C382.389 45.32 386.229 41.352 391.093 38.536C396.042 35.6347 401.632 34.184 407.861 34.184C413.066 34.184 417.674 35.208 421.685 37.256C425.781 39.304 429.024 42.2053 431.413 45.96C433.888 49.6293 435.296 53.896 435.637 58.76L435.765 60.68H392.757V61.32C392.757 70.3653 394.762 77.6187 398.773 83.08C402.784 88.456 408.16 91.144 414.901 91.144C418.997 91.144 422.88 90.1627 426.549 88.2C430.304 86.152 433.333 83.4213 435.637 80.008L436.789 80.392C435.338 84.744 433.077 88.584 430.005 91.912C426.933 95.24 423.306 97.8427 419.125 99.72C414.944 101.597 410.421 102.536 405.557 102.536ZM392.885 58.76H418.869C418.869 52.0187 417.76 46.5573 415.541 42.376C413.408 38.1947 410.378 36.104 406.453 36.104C402.698 36.104 399.584 38.152 397.109 42.248C394.634 46.344 393.226 51.848 392.885 58.76ZM464.112 102.792C461.893 102.792 460.229 102.707 459.12 102.536C458.011 102.365 456.944 102.152 455.92 101.896C454.981 101.64 453.701 101.427 452.08 101.256C450.459 101.085 447.984 101 444.656 101L441.584 76.936H443.248C444.613 84.9573 447.173 91.016 450.928 95.112C454.683 99.1227 458.779 101.128 463.216 101.128C467.568 101.128 470.853 100.232 473.072 98.44C475.376 96.648 476.528 94.216 476.528 91.144C476.528 89.1813 476.016 87.4747 474.992 86.024C474.053 84.488 472.389 82.952 470 81.416C467.611 79.7947 464.368 77.8747 460.272 75.656L456.56 73.608C451.867 70.9627 448.368 67.8907 446.064 64.392C443.845 60.808 442.736 56.968 442.736 52.872C442.736 47.0693 444.827 42.504 449.008 39.176C453.275 35.848 458.949 34.184 466.032 34.184C467.824 34.184 469.275 34.2693 470.384 34.44C471.493 34.6107 472.56 34.824 473.584 35.08C474.608 35.336 475.888 35.5493 477.424 35.72C478.96 35.8907 481.008 35.976 483.568 35.976L485.36 56.584H483.824C483.312 52.5733 482.16 49.032 480.368 45.96C478.661 42.8027 476.613 40.3707 474.224 38.664C471.835 36.872 469.403 35.976 466.928 35.976C463.685 35.976 461.083 36.8293 459.12 38.536C457.243 40.2427 456.304 42.632 456.304 45.704C456.304 48.008 457.029 50.1413 458.48 52.104C460.016 53.9813 462.917 56.0293 467.184 58.248L471.024 60.168C476.997 63.24 481.349 66.44 484.08 69.768C486.811 73.096 488.176 77.3627 488.176 82.568C488.176 95.88 480.155 102.621 464.112 102.792Z" fill="#18181B"/>
</svg>
